<?xml version="1.0" encoding="UTF-8"?>
<svg width="375px" height="180px" viewBox="0 0 375 180" version="1.1" xmlns="http://www.w3.org/2000/svg"
     xmlns:xlink="http://www.w3.org/1999/xlink">
    <title>Others/Illus/login</title>
    <defs>
        <rect id="path-1" x="0" y="0" width="410.831497" height="228.878153"></rect>
    </defs>
    <g id="Design" stroke="none" stroke-width="1" fill="none" fill-rule="evenodd">
        <g id="Group" transform="translate(-16.000000, -14.000000)">
            <g id="Path-3"
               transform="translate(205.415748, 114.439077) rotate(-3.000000) translate(-205.415748, -114.439077) ">
                <mask id="mask-2" fill="white">
                    <use xlink:href="#path-1"></use>
                </mask>
                <g id="Mask"></g>
                <path d="M-14.1605088,225.365913 C35.0095018,171.808218 82.1917264,152.777142 127.386165,168.272687 C195.177823,191.516004 246.272006,217.753326 331.988321,158.423251 C389.132531,118.869868 433.42878,112.054567 464.877067,137.977349 L421.926044,-7.67503987 L-12.9205684,-7.23456357 L-14.1605088,225.365913 Z"
                      fill="#5E76FA" opacity="0.898102679" mask="url(#mask-2)"
                      transform="translate(225.358279, 108.845437) rotate(6.000000) translate(-225.358279, -108.845437) "></path>
                <path d="M3.06830203,188.303972 C22.6453331,180.567893 49.5178578,181.062487 83.6858762,189.787752 C134.937904,202.87565 192.461959,154.370632 249.725347,148.352008 C306.988735,142.333383 336.022095,187.727701 423.060943,142.056739 C481.086842,111.609431 479.834034,99.6897539 419.302518,106.297708 L416.563943,-24.7150972 L-24.2865146,-61.0398575 L-12.9791629,187.886401 L3.06830203,188.303972 Z"
                      id="Path-5" fill="#5E76FA" opacity="0.733816964" mask="url(#mask-2)"
                      transform="translate(220.687052, 65.489579) rotate(6.000000) translate(-220.687052, -65.489579) "></path>
            </g>
        </g>
    </g>
</svg>
