<?xml version="1.0" encoding="UTF-8"?>
<svg width="24px" height="21px" viewBox="0 0 24 21" version="1.1" xmlns="http://www.w3.org/2000/svg" xmlns:xlink="http://www.w3.org/1999/xlink">
    <title>Icon/Solid Line/Menu Hambuger Copy 6</title>
    <defs>
        <path d="M11.1388523,0.406097374 C11.6803155,0.947560539 11.6803155,1.82544578 11.1388523,2.36690895 L4.734,8.771 L22.6134968,8.77175847 C23.3792414,8.77175847 24,9.39251708 24,10.1582616 C24,10.9240062 23.3792414,11.5447648 22.6134968,11.5447648 L4.733,11.544 L11.1388523,17.9499841 C11.6803155,18.4914472 11.6803155,19.3693325 11.1388523,19.9107956 C10.5973891,20.4522588 9.71950388,20.4522588 9.17804071,19.9107956 L0.406097374,11.1388523 L0.387718253,11.1193631 C0.368944348,11.0998471 0.350736696,11.0797823 0.333121728,11.0591953 L0.406097374,11.1388523 C0.36433162,11.0970865 0.325787467,11.0533191 0.290464915,11.0078589 C0.277782463,10.9904818 0.264906101,10.9730667 0.252434357,10.9553462 C0.204268177,10.888112 0.163515023,10.8174225 0.129474251,10.7443781 C0.117377439,10.7169748 0.105632025,10.6895305 0.0947629693,10.6616478 C0.0866716167,10.642395 0.0795281476,10.6227124 0.0728445947,10.6029087 C0.0648528394,10.5776944 0.0569609082,10.551932 0.0498108947,10.5258627 C0.0443953811,10.507851 0.039950318,10.4902338 0.0358559118,10.4725518 C0.0305630804,10.4477274 0.0253545945,10.4220158 0.0208679427,10.396057 C0.0166644191,10.3744724 0.0134857077,10.353124 0.0108055687,10.3317251 C0.00861402409,10.31026 0.00638239856,10.2881793 0.00467489016,10.2659518 C0.00193615092,10.2372296 0.000620987805,10.2088382 0.000173291127,10.1804357 C0.000613372794,10.1731496 0.000554601265,10.1657125 0.000554601265,10.1582616 L0.000173291127,10.1364573 C0.000615699316,10.1083903 0.00190520081,10.0803342 0.00404179561,10.0523305 L0.000554601265,10.1582616 C0.000554601265,10.0983187 0.00435851282,10.0392643 0.0117381121,9.98132651 C0.0137978093,9.96177955 0.0166926186,9.94243424 0.0199969345,9.92314539 C0.0251577098,9.89530006 0.0308058367,9.86745028 0.0372746408,9.83991684 C0.0406176965,9.82402237 0.0447543343,9.80772902 0.0491911011,9.79150058 C0.0569258687,9.76470568 0.0648337242,9.73888533 0.0734625719,9.71339745 C0.0795150851,9.69421934 0.0866436956,9.67457496 0.0942304264,9.65506769 C0.102173539,9.63586493 0.10999149,9.61705815 0.118206096,9.59846586 C0.154514871,9.51491681 0.200314427,9.43377025 0.25487323,9.35693521 C0.266872022,9.34081819 0.278404383,9.32527066 0.290249507,9.30997758 C0.303372166,9.29238561 0.317654298,9.27485864 0.332428916,9.25760853 C0.351565364,9.23577248 0.370658759,9.21478954 0.390371573,9.19440946 C0.395194634,9.18903334 0.400618282,9.1835198 0.406097374,9.17804071 L9.17804071,0.406097374 C9.71950388,-0.135365791 10.5973891,-0.135365791 11.1388523,0.406097374 Z" id="path-1"></path>
    </defs>
    <g id="Design" stroke="none" stroke-width="1" fill="none" fill-rule="evenodd">
        <g id="Payment-History" transform="translate(-28.000000, -56.000000)">
            <g id="Box/Full/Head-Bar" transform="translate(0.000000, 32.000000)">
                <g id="Group" transform="translate(28.000000, 23.000000)">
                    <g id="Color/Gray" transform="translate(12.000000, 12.000000) scale(-1, 1) translate(-12.000000, -12.000000) translate(0.000000, 1.500000)">
                        <mask id="mask-2" fill="white">
                            <use xlink:href="#path-1"></use>
                        </mask>
                        <use id="Mask" fill="#D1D1D1" fill-rule="nonzero" transform="translate(12.000000, 10.158447) scale(-1, 1) translate(-12.000000, -10.158447) " xlink:href="#path-1"></use>
                    </g>
                </g>
            </g>
        </g>
    </g>
</svg>
