<svg id="Layer_3" enable-background="new 0 0 64 64" viewBox="0 0 64 64"
     xmlns="http://www.w3.org/2000/svg">
    <g>
        <path d="m22 16c-1.654 0-3 1.346-3 3s1.346 3 3 3 3-1.346 3-3-1.346-3-3-3zm0 4c-.551 0-1-.449-1-1s.449-1 1-1 1 .449 1 1-.449 1-1 1z" fill="#D1D1D1"/>
        <path d="m42 22c1.654 0 3-1.346 3-3s-1.346-3-3-3-3 1.346-3 3 1.346 3 3 3zm0-4c.551 0 1 .449 1 1s-.449 1-1 1-1-.449-1-1 .449-1 1-1z" fill="#D1D1D1"/>
        <path d="m22 50c-1.654 0-3 1.346-3 3s1.346 3 3 3 3-1.346 3-3-1.346-3-3-3zm0 4c-.551 0-1-.449-1-1s.449-1 1-1 1 .449 1 1-.449 1-1 1z" fill="#D1D1D1"/>
        <path d="m42 56c1.654 0 3-1.346 3-3s-1.346-3-3-3-3 1.346-3 3 1.346 3 3 3zm0-4c.551 0 1 .449 1 1s-.449 1-1 1-1-.449-1-1 .449-1 1-1z" fill="#D1D1D1"/>
        <path d="m62 63c.552 0 1-.448 1-1v-60c0-.552-.448-1-1-1h-6c-.552 0-1 .448-1 1v25h-9.184c.112-.314.184-.648.184-1v-1h2c.552 0 1-.448 1-1v-5c0-1.666-.684-3.175-1.784-4.263 1.049-.468 1.784-1.516 1.784-2.737 0-1.654-1.346-3-3-3h-1.98l-.396-1.981c-.466-2.329-2.528-4.019-4.903-4.019h-13.442c-2.375 0-4.437 1.69-4.903 4.019l-.396 1.981h-1.98c-1.654 0-3 1.346-3 3 0 1.221.735 2.269 1.784 2.737-1.1 1.088-1.784 2.597-1.784 4.263v5c0 .552.448 1 1 1h2v1c0 .352.072.686.184 1h-9.184v-25c0-.552-.448-1-1-1h-6c-.552 0-1 .448-1 1v60c0 .552.448 1 1 1zm-18-37c0 .551-.449 1-1 1h-2c-.551 0-1-.449-1-1v-1h4zm-18-1h12v1c0 .352.072.686.184 1h-12.368c.112-.314.184-.648.184-1zm9-2h-6v-4h6zm11-12c.551 0 1 .449 1 1s-.449 1-1 1h-1.18l-.4-2zm-23.663-3.588c.28-1.398 1.517-2.412 2.942-2.412h13.441c1.425 0 2.662 1.014 2.942 2.412l1.118 5.588h-21.56zm-4.337 3.588h1.58l-.4 2h-1.18c-.551 0-1-.449-1-1s.449-1 1-1zm-1 8c0-2.206 1.794-4 4-4h22c2.206 0 4 1.794 4 4v4h-10v-5c0-.552-.448-1-1-1h-8c-.552 0-1 .448-1 1v5h-10zm3 7v-1h4v1c0 .551-.449 1-1 1h-2c-.551 0-1-.449-1-1zm35 3v2h-46v-2zm-48 32h-4v-58h4zm14 0c-.551 0-1-.449-1-1v-1h4v1c0 .551-.449 1-1 1zm25-14h-1.18l-.4-2h1.58c.551 0 1 .449 1 1s-.449 1-1 1zm-26.82 0h-1.18c-.551 0-1-.449-1-1s.449-1 1-1h1.58zm-2.18 6c0-2.206 1.794-4 4-4h22c2.206 0 4 1.794 4 4v4h-10v-5c0-.552-.448-1-1-1h-8c-.552 0-1 .448-1 1v5h-10zm4.22-6 1.118-5.588c.279-1.398 1.516-2.412 2.941-2.412h13.441c1.425 0 2.662 1.014 2.942 2.412l1.118 5.588zm4.78 12h12v1c0 .352.072.686.184 1h-12.368c.112-.314.184-.648.184-1zm9-2h-6v-4h6zm6 4c-.551 0-1-.449-1-1v-1h4v1c0 .551-.449 1-1 1zm4.816 0c.112-.314.184-.648.184-1v-1h2c.552 0 1-.448 1-1v-5c0-1.666-.684-3.175-1.784-4.263 1.049-.468 1.784-1.516 1.784-2.737 0-1.654-1.346-3-3-3h-1.98l-.396-1.981c-.466-2.329-2.528-4.019-4.903-4.019h-13.442c-2.375 0-4.437 1.69-4.903 4.019l-.396 1.981h-1.98c-1.654 0-3 1.346-3 3 0 1.221.735 2.269 1.784 2.737-1.1 1.088-1.784 2.597-1.784 4.263v5c0 .552.448 1 1 1h2v1c0 .352.072.686.184 1h-9.184v-28h46v28zm15.184 0h-4v-58h4z" fill="#D1D1D1"/>
    </g>
</svg>
