<?xml version="1.0" encoding="iso-8859-1"?>
<svg id="Layer_1" enable-background="new 0 0 511.987 511.987" viewBox="0 0 511.987 511.987"
     xmlns="http://www.w3.org/2000/svg">
    <g>
        <path d="m510.254 120.831-16.625-52.18c-.845-2.327-3.129-5.258-7.146-5.223h-47.504c-4.143 0-7.5 3.357-7.5 7.5s3.357 7.5 7.5 7.5h29.396l-41.893 41.893-41.892-41.893h19.389c4.143 0 7.5-3.357 7.5-7.5s-3.357-7.5-7.5-7.5h-36.329l-208.94-63.121c-1.98-.578-4.459-.4-6.49 1.05l-79.327 55.918c-2.208-5.194-7.361-8.847-13.352-8.847h-43.941c-7.995 0-14.5 6.505-14.5 14.5v76c0 7.995 6.505 14.5 14.5 14.5h43.941c7.995 0 14.5-6.505 14.5-14.5v-.5h45v219.326c0 4.143 3.357 7.5 7.5 7.5s7.5-3.357 7.5-7.5v-28.66l41.893 41.893-41.893 41.893v-20.125c0-4.143-3.357-7.5-7.5-7.5s-7.5 3.357-7.5 7.5v34.031l-53.074 32.508c-4.271 2.617-6.926 7.354-6.926 12.364v25.829c0 7.995 6.505 14.5 14.5 14.5h166c7.995 0 14.5-6.505 14.5-14.5v-25.829c0-5.01-2.654-9.747-6.927-12.364l-53.073-32.508v-288.358h105v19.296c0 7.995 6.505 14.5 14.5 14.5h27.086v95.007c-.061 8.85 8.113 15.619 16.897 14.5v58.982c0 6.871 4.516 12.817 11.237 14.796 5.883 1.731 9.764 7.237 9.437 13.39-.365 6.878-6.272 12.461-13.177 12.461h-.036c-4.363-.012-8.435-2.181-10.891-5.801-2.327-3.43-6.992-4.323-10.417-1.997-3.428 2.325-4.322 6.989-1.997 10.417 5.241 7.727 13.938 12.355 23.264 12.381h.075c14.751 0 27.376-11.947 28.157-26.665.697-13.123-7.601-24.873-20.18-28.575-.27-.08-.473-.254-.473-.406v-58.982c8.636.697 16.964-5.264 16.898-14.5v-95.007h30.06c7.995 0 14.5-6.505 14.5-14.5v-19.296h63.408c4.292 0 8.367-2.069 10.899-5.534s3.269-7.976 1.966-12.064zm-451.213 17.597h-42.941v-75h42.941zm349.334-15h-83.727l41.863-41.863zm-92.594-60h-124.49l-20.748-43.876zm-159.24-38.397 18.157 38.397h-36.314zm-18.953 4.992-15.797 33.405h-31.592zm-63.547 48.405h34.393l-34.393 34.393zm10.608 45 41.893-41.893 41.893 41.893zm49.392 49.44v-34.44h34.406zm45-23.821v83.832l-41.896-41.896zm-45 60.047 41.893 41.893-41.893 41.893zm3.108 101.893 41.893-41.893v83.785zm41.892 78.107v34.393h-34.393zm60 82.844v25.049h-165v-25.049l54.614-33.451h55.771zm-52.514-351.632-41.878-41.878h83.756zm18.092 3.122 41.907-41.907 41.907 41.907zm101.922-3.107-41.893-41.893h83.785zm67.882 146.41h-18.796v-94.507h18.796zm44.56-109.507h-104.942v-18.796h104.941v18.796zm25.607-33.796 38.486-38.486 12.262 38.486z"  fill="#D1D1D1"/>
    </g>
</svg>
