<?xml version="1.0" encoding="iso-8859-1"?>
<!-- Generator: Adobe Illustrator 19.0.0, SVG Export Plug-In . SVG Version: 6.00 Build 0)  -->
<svg version="1.1" id="Capa_1" xmlns="http://www.w3.org/2000/svg" xmlns:xlink="http://www.w3.org/1999/xlink" x="0px"
     y="0px"
     viewBox="0 0 480 480" style="enable-background:new 0 0 480 480;" xml:space="preserve">
<g>
	<g>
		<path d="M456,56v-8c0-4.418-3.582-8-8-8h-24c-0.026-22.08-17.92-39.974-40-40H64C41.92,0.026,24.026,17.92,24,40
			C10.745,40,0,50.745,0,64s10.745,24,24,24c0.026,22.08,17.92,39.974,40,40h320c22.08-0.026,39.974-17.92,40-40h24
			c4.418,0,8-3.582,8-8v-8c4.418,0,8,3.582,8,8v67.608c-0.001,3.647-2.469,6.832-6,7.744L234,213.16
			c-10.583,2.732-17.983,12.27-18,23.2V288h-16c-4.418,0-8,3.582-8,8v160c0,13.255,10.745,24,24,24h16c13.255,0,24-10.745,24-24V296
			c0-4.418-3.582-8-8-8h-16v-51.608c0.001-3.647,2.469-6.832,6-7.744l224-57.808c10.583-2.732,17.983-12.27,18-23.2V80
			C480,66.745,469.255,56,456,56z M24,72c-4.418,0-8-3.582-8-8s3.582-8,8-8V72z M408,88c0,13.255-10.745,24-24,24H64
			c-13.255,0-24-10.745-24-24V40c0-13.255,10.745-24,24-24h320c13.255,0,24,10.745,24,24V88z M440,72h-16V56h16V72z M240,304v152
			c0,4.418-3.582,8-8,8h-16c-4.418,0-8-3.582-8-8V304H240z" fill="#D1D1D1"/>
	</g>
</g>
    <g>
</g>
    <g>
</g>
    <g>
</g>
    <g>
</g>
    <g>
</g>
    <g>
</g>
    <g>
</g>
    <g>
</g>
    <g>
</g>
    <g>
</g>
    <g>
</g>
    <g>
</g>
    <g>
</g>
    <g>
</g>
    <g>
</g>
</svg>
